<svg width="19" height="19" viewBox="0 0 19 19" fill="none" xmlns="http://www.w3.org/2000/svg">
    <path d="M9.40625 18.9167C8.90325 18.9162 8.42062 18.7179 8.0625 18.3646L1.38542 11.6771C1.21408 11.5068 1.10729 11.2822 1.08334 11.0417L0.166671 1.30215C0.152638 1.14958 0.172435 0.99579 0.224651 0.851747C0.276866 0.707704 0.360214 0.576953 0.468754 0.468815C0.576892 0.360275 0.707643 0.276927 0.851686 0.224712C0.995729 0.172497 1.14952 0.152699 1.30209 0.166732L11.0417 1.0834C11.2821 1.10735 11.5067 1.21414 11.6771 1.38548L18.3646 8.06256C18.7189 8.41794 18.9179 8.89929 18.9179 9.40111C18.9179 9.90293 18.7189 10.3843 18.3646 10.7396L10.7396 18.3646C10.3853 18.7173 9.9061 18.9157 9.40625 18.9167ZM3.15625 10.4688L9.40625 16.7188L16.75 9.37506L10.5 3.12506L2.36459 2.36465L3.15625 10.4688Z" fill="#FFC700"/>
</svg>
